#!OML:ASF X:\für Bonn\!DataBase\2005_08_10_Bjorn_Final\c3d\bjorn.ASF
:FULLY-SPECIFIED
:DEGREES
451
root -0.0804491 1.99202 10.6646 -2055.93 -11.9812 190.534
lowerback 32.1922 7.29405 2.44412
upperback 26.7346 0.859985 2.03577
thorax 13.4411 -3.91747 -0.278243
lowerneck 11.3823 2.31865 1.23349
upperneck 13.0384 1.64072 1.46791
head 2.23112 0.280796 0.213141
rclavicle -2.27111e-014 4.77083e-015
rhumerus 8.54169 -0.996249 -76.6316
rradius 44.8156
rwrist -19.1933
rhand -23.0843 8.43905
rfingers 7.12502
rthumb 3.36164 -21.5142
lclavicle -2.27111e-014 4.77083e-015
lhumerus 16.8512 -17.9929 71.0125
lradius 49.6981
lwrist -5.52265
lhand -41.1456 -16.4964
lfingers 7.12502
lthumb -14.072 733.007
rfemur -416.417 -11.6944 357.486
rtibia 95.6085
rfoot 31.8713 8.92874
rtoes -6.00982
lfemur -52.853 1.50801 -19.8724
ltibia 77.9277
lfoot 28.5779 11.5979
ltoes -0.179708
452
root -0.0815698 1.98503 10.6917 -2056.46 -11.9451 190.826
lowerback 32.1904 7.28213 2.40007
upperback 26.7572 0.846748 2.04628
thorax 13.4671 -3.93574 -0.243751
lowerneck 11.4463 2.13734 1.23415
upperneck 13.173 1.34604 1.72253
head 2.26469 0.125912 0.297297
rclavicle 1.22253e-014 -3.18055e-015
rhumerus 8.8455 -1.08899 -76.8195
rradius 44.0839
rwrist -18.8538
rhand -22.5689 8.44673
rfingers 7.12502
rthumb 3.85942 -21.4981
lclavicle 1.22253e-014 -3.18055e-015
lhumerus 17.1045 -17.476 71.8666
lradius 48.9053
lwrist -6.13975
lhand -41.6862 -17.1981
lfingers 7.12502
lthumb -14.5928 732.269
rfemur -415.62 -11.6003 357.6
rtibia 95.1666
rfoot 31.8528 8.97783
rtoes -5.96956
lfemur -52.1645 1.43923 -19.8277
ltibia 77.5762
lfoot 28.7918 11.4008
ltoes -0.0512681
453
root -0.0832151 1.97788 10.7195 -2057.01 -11.9428 191.132
lowerback 32.2171 7.25446 2.35578
upperback 26.7623 0.822738 2.03776
thorax 13.4598 -3.95324 -0.225062
lowerneck 11.5604 1.97063 1.17909
upperneck 13.3021 1.05547 2.0433
head 2.28862 -0.030897 0.41158
rclavicle -9.14409e-015 -3.18055e-015
rhumerus 9.07291 -1.15728 -76.9821
rradius 43.402
rwrist -18.5589
rhand -22.0292 8.47983
rfingers 7.12502
rthumb 4.38059 -21.4549
lclavicle -9.14409e-015 -3.18055e-015
lhumerus 17.3494 -17.1045 72.5559
lradius 48.1093
lwrist -6.78681
lhand -42.2556 -17.8508
lfingers 7.12502
lthumb -15.1414 731.575
rfemur -414.794 -11.5673 357.688
rtibia 94.6851
rfoot 31.8388 9.10893
rtoes -6.08779
lfemur -51.472 1.34695 -19.8276
ltibia 77.2219
lfoot 29.0016 11.1346
ltoes -0.0351667
454
root -0.0850328 1.97108 10.7479 -2057.56 -11.9176 191.422
lowerback 32.2353 7.24105 2.31402
upperback 26.7709 0.816295 2.03949
thorax 13.46 -3.96339 -0.200208
lowerneck 11.6748 1.79994 1.14068
upperneck 13.4235 0.765303 2.31609
head 2.31175 -0.187065 0.50828
rclavicle -1.82882e-014 3.49861e-014
rhumerus 9.28188 -1.23525 -77.1205
rradius 42.7458
rwrist -18.3208
rhand -21.4699 8.52494
rfingers 7.12502
rthumb 4.92063 -21.3979
lclavicle -1.82882e-014 3.49861e-014
lhumerus 17.6493 -16.8028 73.1598
lradius 47.2604
lwrist -7.53617
lhand -42.8813 -18.5352
lfingers 7.12502
lthumb -15.744 730.844
rfemur -413.96 -11.5541 357.801
rtibia 94.1597
rfoot 31.8768 9.18052
rtoes -6.16919
lfemur -50.7741 1.27634 -19.8095
ltibia 76.8714
lfoot 29.2037 10.8702
ltoes 0.0464479
455
root -0.087377 1.96354 10.7765 -2058.11 -11.9125 191.744
lowerback 32.2429 7.21381 2.25714
upperback 26.7935 0.783233 2.03957
thorax 13.4819 -3.99152 -0.166411
lowerneck 11.7463 1.64165 1.11995
upperneck 13.5831 0.489802 2.56746
head 2.35602 -0.335843 0.5956
rclavicle 1.71949e-014 -3.18055e-014
rhumerus 9.51695 -1.31336 -77.2523
rradius 42.0826
rwrist -18.1024
rhand -20.8201 8.67229
rfingers 7.12502
rthumb 5.548 -21.2351
lclavicle 1.71949e-014 -3.18055e-014
lhumerus 18.0064 -16.555 73.6283
lradius 46.3869
lwrist -8.3085
lhand -43.5146 -19.1375
lfingers 7.12502
lthumb -16.3539 730.193
rfemur -413.098 -11.6162 357.906
rtibia 93.5889
rfoot 31.9226 9.28874
rtoes -6.4044
lfemur -50.0817 1.15485 -19.8081
ltibia 76.5238
lfoot 29.3575 10.6382
ltoes 0.139409
456
root -0.0892401 1.95676 10.8061 -2058.68 -11.9025 192.041
lowerback 32.2614 7.19848 2.20634
upperback 26.8184 0.765588 2.02764
thorax 13.503 -4.01077 -0.151967
lowerneck 11.8443 1.48482 1.11743
upperneck 13.7386 0.215177 2.8146
head 2.39593 -0.484717 0.678716
rclavicle -7.02704e-014 9.54166e-015
rhumerus 9.70596 -1.38145 -77.3677
rradius 41.4868
rwrist -17.887
rhand -20.1707 8.75314
rfingers 7.12502
rthumb 6.17503 -21.1369
lclavicle -7.02704e-014 9.54166e-015
lhumerus 18.4216 -16.3669 74.0021
lradius 45.4523
lwrist -9.18734
lhand -44.203 -19.6672
lfingers 7.12502
lthumb -17.0166 729.607
rfemur -412.202 -11.6536 358.024
rtibia 92.9647
rfoot 31.9551 9.38868
rtoes -6.76906
lfemur -49.3627 1.06094 -19.8121
ltibia 76.1805
lfoot 29.5166 10.3083
ltoes 0.0269792
457
root -0.0908819 1.94994 10.8365 -2059.25 -11.8963 192.369
lowerback 32.2533 7.18297 2.14042
upperback 26.8478 0.746413 2.04436
thorax 13.5387 -4.03509 -0.0984507
lowerneck 11.9302 1.32864 1.11896
upperneck 13.9007 -0.0553057 3.019
head 2.44093 -0.631428 0.747741
rclavicle -2.98177e-015 -4.77083e-014
rhumerus 9.87331 -1.42821 -77.4343
rradius 40.9121
rwrist -17.605
rhand -19.5927 8.89
rfingers 7.12502
rthumb 6.73303 -20.983
lclavicle -2.98177e-015 -4.77083e-014
lhumerus 18.8763 -16.2122 74.3505
lradius 44.4529
lwrist -10.1118
lhand -44.9209 -20.2588
lfingers 7.12502
lthumb -17.7075 728.955
rfemur -411.283 -11.7228 358.149
rtibia 92.2798
rfoot 32.0423 9.43421
rtoes -6.82161
lfemur -48.6595 0.951062 -19.8114
ltibia 75.8448
lfoot 29.6082 10.0527
ltoes -0.127184
458
root -0.092872 1.9423 10.8663 -2059.84 -11.8915 192.704
lowerback 32.2611 7.16078 2.07539
upperback 26.8768 0.717889 2.05062
thorax 13.5683 -4.06376 -0.05507
lowerneck 12.0779 1.17937 1.14363
upperneck 14.0229 -0.312819 3.21585
head 2.46309 -0.772221 0.810377
rclavicle -1.13307e-014 -9.22361e-014
rhumerus 10.0057 -1.44214 -77.4846
rradius 40.3874
rwrist -17.2999
rhand -19.0211 9.02476
rfingers 7.12502
rthumb 7.28479 -20.8298
lclavicle -1.13307e-014 -9.22361e-014
lhumerus 19.3772 -16.0908 74.6165
lradius 43.3322
lwrist -11.0362
lhand -45.6888 -20.9959
lfingers 7.12502
lthumb -18.4463 728.15
rfemur -410.316 -11.8231 358.286
rtibia 91.5318
rfoot 32.1795 9.47971
rtoes -6.64695
lfemur -47.9518 0.81842 -19.8128
ltibia 75.5228
lfoot 29.7082 9.78178
ltoes -0.39078
459
root -0.0947559 1.93506 10.8952 -2060.42 -11.8957 193.028
lowerback 32.2333 7.14227 1.97524
upperback 26.911 0.688708 2.05258
thorax 13.6162 -4.09657 0.00128549
lowerneck 12.1727 1.04755 1.16381
upperneck 14.2078 -0.553449 3.38129
head 2.51556 -0.905941 0.863741
rclavicle -2.24627e-014 -7.95139e-014
rhumerus 10.111 -1.40512 -77.498
rradius 39.9374
rwrist -17.0296
rhand -18.4877 9.19196
rfingers 7.12502
rthumb 7.79961 -20.6442
lclavicle -2.24627e-014 -7.95139e-014
lhumerus 19.9428 -15.9572 74.8592
lradius 42.049
lwrist -12.0229
lhand -46.5361 -21.8314
lfingers 7.12502
lthumb -19.2612 727.235
rfemur -409.336 -11.912 358.417
rtibia 90.7032
rfoot 32.3512 9.35746
rtoes -6.02503
lfemur -47.2564 0.698686 -19.8343
ltibia 75.2125
lfoot 29.7482 9.46366
ltoes -1.22982
460
root -0.0959765 1.92722 10.9241 -2061 -11.8853 193.358
lowerback 32.2122 7.13101 1.87069
upperback 26.9326 0.673721 2.07301
thorax 13.6447 -4.12235 0.0796347
lowerneck 12.3318 0.923495 1.17661
upperneck 14.3566 -0.784794 3.56066
head 2.54593 -1.03686 0.922927
rclavicle -1.63003e-014 3.81667e-014
rhumerus 10.1742 -1.36396 -77.4659
rradius 39.5183
rwrist -16.7789
rhand -18.0269 9.41827
rfingers 7.12502
rthumb 8.24435 -20.4009
lclavicle -1.63003e-014 3.81667e-014
lhumerus 20.5395 -15.8387 75.0992
lradius 40.6587
lwrist -13.0004
lhand -47.4081 -22.924
lfingers 7.12502
lthumb -20.0995 726.056
rfemur -408.326 -12.037 358.581
rtibia 89.7951
rfoot 32.4808 9.22655
rtoes -5.79738
lfemur -46.5778 0.569209 -19.8362
ltibia 74.9223
lfoot 29.7353 9.19393
ltoes -2.36782
461
root -0.0979535 1.91989 10.9523 -2061.58 -11.8882 193.668
lowerback 32.1641 7.12471 1.73684
upperback 26.967 0.656437 2.0848
thorax 13.6987 -4.15443 0.162353
lowerneck 12.4999 0.806934 1.18919
upperneck 14.4936 -1.00308 3.71396
head 2.571 -1.1618 0.973819
rclavicle 2.28602e-014 -5.40694e-014
rhumerus 10.2416 -1.28826 -77.4283
rradius 39.1113
rwrist -16.4837
rhand -17.5776 9.6961
rfingers 7.12502
rthumb 8.67794 -20.1055
lclavicle 2.28602e-014 -5.40694e-014
lhumerus 21.1923 -15.6403 75.3694
lradius 39.1855
lwrist -13.9911
lhand -48.0971 -24.1227
lfingers 7.12502
lthumb -20.7617 724.787
rfemur -407.281 -12.1644 358.746
rtibia 88.7908
rfoot 32.6067 9.08235
rtoes -5.90003
lfemur -45.892 0.455851 -19.8544
ltibia 74.6431
lfoot 29.6745 8.9332
ltoes -3.58319
462
root -0.0994233 1.91263 10.9793 -2062.16 -11.887 193.975
lowerback 32.1149 7.12442 1.58853
upperback 26.9931 0.649322 2.09747
thorax 13.7414 -4.18147 0.253167
lowerneck 12.6918 0.703335 1.20939
upperneck 14.6477 -1.20959 3.86533
head 2.59849 -1.28311 1.02294
rclavicle -2.04748e-014 6.04305e-014
rhumerus 10.2865 -1.20318 -77.3902
rradius 38.7061
rwrist -16.2274
rhand -17.1682 9.94204
rfingers 7.12502
rthumb 9.07308 -19.8428
lclavicle -2.04748e-014 6.04305e-014
lhumerus 21.8473 -15.5282 75.5679
lradius 37.7478
lwrist -14.8194
lhand -48.6266 -25.2995
lfingers 7.12502
lthumb -21.2704 723.553
rfemur -406.198 -12.318 358.922
rtibia 87.7071
rfoot 32.7706 8.93051
rtoes -6.06333
lfemur -45.2095 0.339424 -19.873
ltibia 74.3811
lfoot 29.5935 8.62948
ltoes -4.93054
463
root -0.100819 1.90524 11.0077 -2062.75 -11.8718 194.295
lowerback 32.0672 7.112 1.45775
upperback 27.0037 0.640092 2.10042
thorax 13.7651 -4.20106 0.3268
lowerneck 12.9281 0.601352 1.28176
upperneck 14.8093 -1.41287 3.99292
head 2.62151 -1.40392 1.05582
rclavicle 2.42517e-014 -6.36111e-015
rhumerus 10.3139 -1.12925 -77.3619
rradius 38.2976
rwrist -15.9371
rhand -16.7379 10.1921
rfingers 7.12502
rthumb 9.48823 -19.5743
lclavicle 2.42517e-014 -6.36111e-015
lhumerus 22.4579 -15.4504 75.7429
lradius 36.3742
lwrist -15.6949
lhand -49.0431 -26.2565
lfingers 7.12502
lthumb -21.6704 722.551
rfemur -405.083 -12.4817 359.129
rtibia 86.5407
rfoot 32.9404 8.78391
rtoes -6.3124
lfemur -44.5228 0.210721 -19.8709
ltibia 74.1174
lfoot 29.4996 8.40272
ltoes -5.77979
464
root -0.102137 1.89775 11.035 -2063.34 -11.8695 194.608
lowerback 32.0111 7.10325 1.28364
upperback 27.0078 0.630935 2.10877
thorax 13.7809 -4.22601 0.4302
lowerneck 13.2209 0.517594 1.30579
upperneck 14.9397 -1.59515 4.12198
head 2.62484 -1.51843 1.09766
rclavicle 7.55382e-015 -2.54444e-014
rhumerus 10.3591 -1.01115 -77.281
rradius 37.8942
rwrist -15.6999
rhand -16.523 10.2113
rfingers 7.12502
rthumb 9.69555 -19.5455
lclavicle 7.55382e-015 -2.54444e-014
lhumerus 23.0007 -15.3332 75.925
lradius 35.116
lwrist -16.7091
lhand -49.3355 -27.0636
lfingers 7.12502
lthumb -21.9512 721.711
rfemur -403.944 -12.6581 359.328
rtibia 85.3057
rfoot 33.1122 8.71279
rtoes -6.81133
lfemur -43.845 0.073092 -19.8866
ltibia 73.8627
lfoot 29.3851 8.16699
ltoes -6.46795
465
root -0.103613 1.89101 11.0623 -2063.92 -11.8476 194.895
lowerback 31.9437 7.1006 1.12308
upperback 27.0004 0.64185 2.08582
thorax 13.7874 -4.23073 0.490157
lowerneck 13.5281 0.423033 1.45759
upperneck 15.085 -1.78023 4.20492
head 2.63043 -1.63128 1.10314
rclavicle 3.45885e-014 -6.04305e-014
rhumerus 10.3871 -0.92894 -77.2418
rradius 37.481
rwrist -15.4784
rhand -16.3511 10.1871
rfingers 7.12502
rthumb 9.86148 -19.5619
lclavicle 3.45885e-014 -6.04305e-014
lhumerus 23.4468 -15.2141 76.0652
lradius 34.0177
lwrist -17.9333
lhand -49.5506 -27.4739
lfingers 7.12502
lthumb -22.1577 721.276
rfemur -402.795 -12.8459 359.547
rtibia 84.0071
rfoot 33.3185 8.63801
rtoes -7.04347
lfemur -43.1631 -0.0149324 -19.8912
ltibia 73.6086
lfoot 29.2647 7.89234
ltoes -6.91456
